<?xml version="1.0" encoding="UTF-8" standalone="no"?><svg xmlns="http://www.w3.org/2000/svg" xmlns:xlink="http://www.w3.org/1999/xlink" contentScriptType="application/ecmascript" contentStyleType="text/css" height="1085px" preserveAspectRatio="none" style="width:2218px;height:1085px;" version="1.1" viewBox="0 0 2218 1085" width="2218px" zoomAndPan="magnify"><defs><filter height="300%" id="f1njw0xzkkl3j4" width="300%" x="-1" y="-1"><feGaussianBlur result="blurOut" stdDeviation="2.0"/><feColorMatrix in="blurOut" result="blurOut2" type="matrix" values="0 0 0 0 0 0 0 0 0 0 0 0 0 0 0 0 0 0 .4 0"/><feOffset dx="4.0" dy="4.0" in="blurOut2" result="blurOut3"/><feBlend in="SourceGraphic" in2="blurOut3" mode="normal"/></filter></defs><g><!--MD5=[619b739ef56a31aac8f3ff29a2aafd67]
cluster ArchLib--><polygon fill="#FFFFFF" filter="url(#f1njw0xzkkl3j4)" points="16,6,83,6,90,28.2969,542,28.2969,542,105,16,105,16,6" style="stroke:#000000;stroke-width:1.5;"/><line style="stroke:#000000;stroke-width:1.5;" x1="16" x2="90" y1="28.2969" y2="28.2969"/><text fill="#000000" font-family="sans-serif" font-size="14" font-weight="bold" lengthAdjust="spacing" textLength="61" x="20" y="20.9951">ArchLib</text><!--MD5=[4184eab77724a1e338b2b62864b2f17b]
cluster rechnen.component.tsx--><polygon fill="#FFFFFF" filter="url(#f1njw0xzkkl3j4)" points="78,129,275,129,282,151.2969,418,151.2969,418,356,78,356,78,129" style="stroke:#000000;stroke-width:1.5;"/><line style="stroke:#000000;stroke-width:1.5;" x1="78" x2="282" y1="151.2969" y2="151.2969"/><text fill="#000000" font-family="sans-serif" font-size="14" font-weight="bold" lengthAdjust="spacing" textLength="191" x="82" y="143.9951">rechnen.component.tsx</text><!--MD5=[735916523d7c5b4c82aef6023a46cd2a]
cluster rechnen.controller.ts--><polygon fill="#FFFFFF" filter="url(#f1njw0xzkkl3j4)" points="120,380,297,380,304,402.2969,582,402.2969,582,817,120,817,120,380" style="stroke:#000000;stroke-width:1.5;"/><line style="stroke:#000000;stroke-width:1.5;" x1="120" x2="304" y1="402.2969" y2="402.2969"/><text fill="#000000" font-family="sans-serif" font-size="14" font-weight="bold" lengthAdjust="spacing" textLength="171" x="124" y="394.9951">rechnen.controller.ts</text><!--MD5=[0019dc723930b223bf665387ce3335e5]
cluster aufgaben.service.ts--><polygon fill="#FFFFFF" filter="url(#f1njw0xzkkl3j4)" points="606,667,772,667,779,689.2969,1733,689.2969,1733,1052.5,606,1052.5,606,667" style="stroke:#000000;stroke-width:1.5;"/><line style="stroke:#000000;stroke-width:1.5;" x1="606" x2="779" y1="689.2969" y2="689.2969"/><text fill="#000000" font-family="sans-serif" font-size="14" font-weight="bold" lengthAdjust="spacing" textLength="160" x="610" y="681.9951">aufgaben.service.ts</text><!--MD5=[9d17f77f7e3480828e9b55152458a172]
cluster storage.service.ts--><polygon fill="#FFFFFF" filter="url(#f1njw0xzkkl3j4)" points="1757,877,1910,877,1917,899.2969,2201,899.2969,2201,1078,1757,1078,1757,877" style="stroke:#000000;stroke-width:1.5;"/><line style="stroke:#000000;stroke-width:1.5;" x1="1757" x2="1917" y1="899.2969" y2="899.2969"/><text fill="#000000" font-family="sans-serif" font-size="14" font-weight="bold" lengthAdjust="spacing" textLength="147" x="1761" y="891.9951">storage.service.ts</text><!--MD5=[2f2dc5b1f3db591998473aa1c8a80a2b]
class GenericComponent--><rect codeLine="2" fill="#FEFECE" filter="url(#f1njw0xzkkl3j4)" height="48" id="GenericComponent" style="stroke:#A80036;stroke-width:1.5;" width="148" x="201" y="41"/><ellipse cx="216" cy="57" fill="#B4A7E5" rx="11" ry="11" style="stroke:#A80036;stroke-width:1.0;"/><path d="M216.9531,53.7813 L218.6719,53.7813 C219.0625,53.7813 219.25,53.75 219.375,53.6719 C219.6406,53.5156 219.7813,53.2344 219.7813,52.9375 C219.7813,52.6719 219.6719,52.4063 219.4375,52.2344 C219.2656,52.125 219.125,52.0938 218.6719,52.0938 L213.5313,52.0938 C213.0938,52.0938 212.9688,52.1094 212.8125,52.2031 C212.5625,52.3594 212.4063,52.6563 212.4063,52.9375 C212.4063,53.2188 212.5469,53.4688 212.7656,53.6406 C212.9219,53.75 213.1094,53.7813 213.5313,53.7813 L215.25,53.7813 L215.25,60.2969 L213.5313,60.2969 C213.0938,60.2969 212.9688,60.3125 212.8125,60.4219 C212.5625,60.5781 212.4063,60.8594 212.4063,61.1563 C212.4063,61.4063 212.5469,61.6719 212.7656,61.8281 C212.9219,61.9531 213.125,62 213.5313,62 L218.6719,62 C219.4219,62 219.7813,61.7188 219.7813,61.1563 C219.7813,60.875 219.6719,60.625 219.4375,60.4531 C219.2656,60.3281 219.125,60.2969 218.6719,60.2969 L216.9531,60.2969 L216.9531,53.7813 Z " fill="#000000"/><text fill="#000000" font-family="sans-serif" font-size="12" font-style="italic" lengthAdjust="spacing" textLength="116" x="230" y="61.1543">GenericComponent</text><line style="stroke:#A80036;stroke-width:1.5;" x1="202" x2="348" y1="73" y2="73"/><line style="stroke:#A80036;stroke-width:1.5;" x1="202" x2="348" y1="81" y2="81"/><!--MD5=[c8f8358d41a1c595b99510f2374ca8ba]
class AbstractController--><rect codeLine="3" fill="#FEFECE" filter="url(#f1njw0xzkkl3j4)" height="48" id="AbstractController" style="stroke:#A80036;stroke-width:1.5;" width="141" x="384.5" y="41"/><ellipse cx="399.5" cy="57" fill="#ADD1B2" rx="11" ry="11" style="stroke:#A80036;stroke-width:1.0;"/><path d="M401.8438,52.6719 C400.9063,52.2344 400.3125,52.0938 399.4375,52.0938 C396.8125,52.0938 394.8125,54.1719 394.8125,56.8906 L394.8125,58.0156 C394.8125,60.5938 396.9219,62.4844 399.8125,62.4844 C401.0313,62.4844 402.1875,62.1875 402.9375,61.6406 C403.5156,61.2344 403.8438,60.7813 403.8438,60.3906 C403.8438,59.9375 403.4531,59.5469 402.9844,59.5469 C402.7656,59.5469 402.5625,59.625 402.375,59.8125 C401.9219,60.2969 401.9219,60.2969 401.7344,60.3906 C401.3125,60.6563 400.625,60.7813 399.8594,60.7813 C397.8125,60.7813 396.5156,59.6875 396.5156,57.9844 L396.5156,56.8906 C396.5156,55.1094 397.7656,53.7969 399.5,53.7969 C400.0781,53.7969 400.6875,53.9531 401.1563,54.2031 C401.6406,54.4844 401.8125,54.7031 401.9063,55.1094 C401.9688,55.5156 402,55.6406 402.1406,55.7656 C402.2813,55.9063 402.5156,56.0156 402.7344,56.0156 C403,56.0156 403.2656,55.875 403.4375,55.6563 C403.5469,55.5 403.5781,55.3125 403.5781,54.8906 L403.5781,53.4688 C403.5781,53.0313 403.5625,52.9063 403.4688,52.75 C403.3125,52.4844 403.0313,52.3438 402.7344,52.3438 C402.4375,52.3438 402.2344,52.4375 402.0156,52.75 L401.8438,52.6719 Z " fill="#000000"/><text fill="#000000" font-family="sans-serif" font-size="12" lengthAdjust="spacing" textLength="109" x="413.5" y="61.1543">AbstractController</text><line style="stroke:#A80036;stroke-width:1.5;" x1="385.5" x2="524.5" y1="73" y2="73"/><line style="stroke:#A80036;stroke-width:1.5;" x1="385.5" x2="524.5" y1="81" y2="81"/><!--MD5=[7f1029a1d195ff487557602559e62f39]
class ReactComponent--><rect codeLine="4" fill="#FEFECE" filter="url(#f1njw0xzkkl3j4)" height="48" id="ReactComponent" style="stroke:#A80036;stroke-width:1.5;" width="134" x="32" y="41"/><ellipse cx="47" cy="57" fill="#ADD1B2" rx="11" ry="11" style="stroke:#A80036;stroke-width:1.0;"/><path d="M49.3438,52.6719 C48.4063,52.2344 47.8125,52.0938 46.9375,52.0938 C44.3125,52.0938 42.3125,54.1719 42.3125,56.8906 L42.3125,58.0156 C42.3125,60.5938 44.4219,62.4844 47.3125,62.4844 C48.5313,62.4844 49.6875,62.1875 50.4375,61.6406 C51.0156,61.2344 51.3438,60.7813 51.3438,60.3906 C51.3438,59.9375 50.9531,59.5469 50.4844,59.5469 C50.2656,59.5469 50.0625,59.625 49.875,59.8125 C49.4219,60.2969 49.4219,60.2969 49.2344,60.3906 C48.8125,60.6563 48.125,60.7813 47.3594,60.7813 C45.3125,60.7813 44.0156,59.6875 44.0156,57.9844 L44.0156,56.8906 C44.0156,55.1094 45.2656,53.7969 47,53.7969 C47.5781,53.7969 48.1875,53.9531 48.6563,54.2031 C49.1406,54.4844 49.3125,54.7031 49.4063,55.1094 C49.4688,55.5156 49.5,55.6406 49.6406,55.7656 C49.7813,55.9063 50.0156,56.0156 50.2344,56.0156 C50.5,56.0156 50.7656,55.875 50.9375,55.6563 C51.0469,55.5 51.0781,55.3125 51.0781,54.8906 L51.0781,53.4688 C51.0781,53.0313 51.0625,52.9063 50.9688,52.75 C50.8125,52.4844 50.5313,52.3438 50.2344,52.3438 C49.9375,52.3438 49.7344,52.4375 49.5156,52.75 L49.3438,52.6719 Z " fill="#000000"/><text fill="#000000" font-family="sans-serif" font-size="12" lengthAdjust="spacing" textLength="102" x="61" y="61.1543">ReactComponent</text><line style="stroke:#A80036;stroke-width:1.5;" x1="33" x2="165" y1="73" y2="73"/><line style="stroke:#A80036;stroke-width:1.5;" x1="33" x2="165" y1="81" y2="81"/><!--MD5=[90f9a3dfe9d522c7364ba21445517e13]
class RechnenComponent--><rect codeLine="8" fill="#FEFECE" filter="url(#f1njw0xzkkl3j4)" height="176.0469" id="RechnenComponent" style="stroke:#A80036;stroke-width:1.5;" width="308" x="94" y="164"/><ellipse cx="183.75" cy="180" fill="#ADD1B2" rx="11" ry="11" style="stroke:#A80036;stroke-width:1.0;"/><path d="M186.0938,175.6719 C185.1563,175.2344 184.5625,175.0938 183.6875,175.0938 C181.0625,175.0938 179.0625,177.1719 179.0625,179.8906 L179.0625,181.0156 C179.0625,183.5938 181.1719,185.4844 184.0625,185.4844 C185.2813,185.4844 186.4375,185.1875 187.1875,184.6406 C187.7656,184.2344 188.0938,183.7813 188.0938,183.3906 C188.0938,182.9375 187.7031,182.5469 187.2344,182.5469 C187.0156,182.5469 186.8125,182.625 186.625,182.8125 C186.1719,183.2969 186.1719,183.2969 185.9844,183.3906 C185.5625,183.6563 184.875,183.7813 184.1094,183.7813 C182.0625,183.7813 180.7656,182.6875 180.7656,180.9844 L180.7656,179.8906 C180.7656,178.1094 182.0156,176.7969 183.75,176.7969 C184.3281,176.7969 184.9375,176.9531 185.4063,177.2031 C185.8906,177.4844 186.0625,177.7031 186.1563,178.1094 C186.2188,178.5156 186.25,178.6406 186.3906,178.7656 C186.5313,178.9063 186.7656,179.0156 186.9844,179.0156 C187.25,179.0156 187.5156,178.875 187.6875,178.6563 C187.7969,178.5 187.8281,178.3125 187.8281,177.8906 L187.8281,176.4688 C187.8281,176.0313 187.8125,175.9063 187.7188,175.75 C187.5625,175.4844 187.2813,175.3438 186.9844,175.3438 C186.6875,175.3438 186.4844,175.4375 186.2656,175.75 L186.0938,175.6719 Z " fill="#000000"/><text fill="#000000" font-family="sans-serif" font-size="12" lengthAdjust="spacing" textLength="120" x="204.25" y="184.1543">RechnenComponent</text><line style="stroke:#A80036;stroke-width:1.5;" x1="95" x2="401" y1="196" y2="196"/><ellipse cx="105" cy="207" rx="3" ry="3" style="stroke:#038048;stroke-width:1.0;fill:none;"/><text fill="#000000" font-family="sans-serif" font-size="11" lengthAdjust="spacing" textLength="251" x="114" y="210.2104">ctrl: "RechnenController": RechnenController</text><rect fill="none" height="6" style="stroke:#C82930;stroke-width:1.0;" width="6" x="102" y="216.8047"/><text fill="#000000" font-family="sans-serif" font-size="11" lengthAdjust="spacing" textLength="36" x="114" y="223.0151">toggle</text><rect fill="none" height="6" style="stroke:#C82930;stroke-width:1.0;" width="6" x="102" y="229.6094"/><text fill="#000000" font-family="sans-serif" font-size="11" lengthAdjust="spacing" textLength="45" x="114" y="235.8198">formRef</text><rect fill="none" height="6" style="stroke:#C82930;stroke-width:1.0;" width="6" x="102" y="242.4141"/><text fill="#000000" font-family="sans-serif" font-size="11" lengthAdjust="spacing" textLength="80" x="114" y="248.6245">isModalVisible</text><rect fill="none" height="6" style="stroke:#C82930;stroke-width:1.0;" width="6" x="102" y="255.2188"/><text fill="#000000" font-family="sans-serif" font-size="11" lengthAdjust="spacing" textLength="68" x="114" y="261.4292">isSubmitted</text><rect fill="none" height="6" style="stroke:#C82930;stroke-width:1.0;" width="6" x="102" y="268.0234"/><text fill="#000000" font-family="sans-serif" font-size="11" lengthAdjust="spacing" textLength="105" x="114" y="274.2339">isEingabeDisabled</text><line style="stroke:#A80036;stroke-width:1.5;" x1="95" x2="401" y1="280.8281" y2="280.8281"/><ellipse cx="105" cy="291.8281" fill="#84BE84" rx="3" ry="3" style="stroke:#038048;stroke-width:1.0;"/><text fill="#000000" font-family="sans-serif" font-size="11" lengthAdjust="spacing" textLength="156" x="114" y="295.0386">componentDidMount(): void</text><rect fill="#F24D5C" height="6" style="stroke:#C82930;stroke-width:1.0;" width="6" x="102" y="301.6328"/><text fill="#000000" font-family="sans-serif" font-size="11" lengthAdjust="spacing" textLength="181" x="114" y="307.8433">onKeyUp(event: unknown): void</text><rect fill="#F24D5C" height="6" style="stroke:#C82930;stroke-width:1.0;" width="6" x="102" y="314.4375"/><text fill="#000000" font-family="sans-serif" font-size="11" lengthAdjust="spacing" textLength="282" x="114" y="320.6479">onReset(): [MISSING_RETURN_TYPE_ANNOTATION]</text><ellipse cx="105" cy="330.2422" fill="#84BE84" rx="3" ry="3" style="stroke:#038048;stroke-width:1.0;"/><text fill="#000000" font-family="sans-serif" font-size="11" lengthAdjust="spacing" textLength="123" x="114" y="333.4526">render(): JSX.Element</text><!--MD5=[c2497398af7f294a2182d3ff32c199e1]
class RechnenController--><rect codeLine="23" fill="#FEFECE" filter="url(#f1njw0xzkkl3j4)" height="227.2656" id="RechnenController" style="stroke:#A80036;stroke-width:1.5;" width="429" x="136.5" y="415"/><ellipse cx="291.75" cy="431" fill="#ADD1B2" rx="11" ry="11" style="stroke:#A80036;stroke-width:1.0;"/><path d="M294.0938,426.6719 C293.1563,426.2344 292.5625,426.0938 291.6875,426.0938 C289.0625,426.0938 287.0625,428.1719 287.0625,430.8906 L287.0625,432.0156 C287.0625,434.5938 289.1719,436.4844 292.0625,436.4844 C293.2813,436.4844 294.4375,436.1875 295.1875,435.6406 C295.7656,435.2344 296.0938,434.7813 296.0938,434.3906 C296.0938,433.9375 295.7031,433.5469 295.2344,433.5469 C295.0156,433.5469 294.8125,433.625 294.625,433.8125 C294.1719,434.2969 294.1719,434.2969 293.9844,434.3906 C293.5625,434.6563 292.875,434.7813 292.1094,434.7813 C290.0625,434.7813 288.7656,433.6875 288.7656,431.9844 L288.7656,430.8906 C288.7656,429.1094 290.0156,427.7969 291.75,427.7969 C292.3281,427.7969 292.9375,427.9531 293.4063,428.2031 C293.8906,428.4844 294.0625,428.7031 294.1563,429.1094 C294.2188,429.5156 294.25,429.6406 294.3906,429.7656 C294.5313,429.9063 294.7656,430.0156 294.9844,430.0156 C295.25,430.0156 295.5156,429.875 295.6875,429.6563 C295.7969,429.5 295.8281,429.3125 295.8281,428.8906 L295.8281,427.4688 C295.8281,427.0313 295.8125,426.9063 295.7188,426.75 C295.5625,426.4844 295.2813,426.3438 294.9844,426.3438 C294.6875,426.3438 294.4844,426.4375 294.2656,426.75 L294.0938,426.6719 Z " fill="#000000"/><text fill="#000000" font-family="sans-serif" font-size="12" lengthAdjust="spacing" textLength="110" x="312.25" y="435.1543">RechnenController</text><line style="stroke:#A80036;stroke-width:1.5;" x1="137.5" x2="564.5" y1="447" y2="447"/><rect fill="none" height="6" style="stroke:#C82930;stroke-width:1.0;" width="6" x="144.5" y="455"/><text fill="#000000" font-family="sans-serif" font-size="11" lengthAdjust="spacing" textLength="214" x="156.5" y="461.2104">aufgabenService: "AufgabenService"</text><rect fill="none" height="6" style="stroke:#C82930;stroke-width:1.0;" width="6" x="144.5" y="467.8047"/><text fill="#000000" font-family="sans-serif" font-size="11" lengthAdjust="spacing" textLength="193" x="156.5" y="474.0151">storageService: "StorageService"</text><ellipse cx="147.5" cy="483.6094" rx="3" ry="3" style="stroke:#038048;stroke-width:1.0;fill:none;"/><text fill="#000000" font-family="sans-serif" font-size="11" lengthAdjust="spacing" textLength="155" x="156.5" y="486.8198">aufgabe: "RechenAufgabe"</text><ellipse cx="147.5" cy="496.4141" rx="3" ry="3" style="stroke:#038048;stroke-width:1.0;fill:none;"/><text fill="#000000" font-family="sans-serif" font-size="11" lengthAdjust="spacing" textLength="76" x="156.5" y="499.6245">ergebnisText</text><ellipse cx="147.5" cy="509.2188" rx="3" ry="3" style="stroke:#038048;stroke-width:1.0;fill:none;"/><text fill="#000000" font-family="sans-serif" font-size="11" lengthAdjust="spacing" textLength="79" x="156.5" y="512.4292">ergebnisColor</text><line style="stroke:#A80036;stroke-width:1.5;" x1="137.5" x2="564.5" y1="519.0234" y2="519.0234"/><ellipse cx="147.5" cy="530.0234" fill="#84BE84" rx="3" ry="3" style="stroke:#038048;stroke-width:1.0;"/><text fill="#000000" font-family="sans-serif" font-size="11" lengthAdjust="spacing" textLength="70" x="156.5" y="533.2339">constructor()</text><ellipse cx="147.5" cy="542.8281" fill="#84BE84" rx="3" ry="3" style="stroke:#038048;stroke-width:1.0;"/><text fill="#000000" font-family="sans-serif" font-size="11" lengthAdjust="spacing" textLength="124" x="156.5" y="546.0386">createAufgabe(): void</text><rect fill="#F24D5C" height="6" style="stroke:#C82930;stroke-width:1.0;" width="6" x="144.5" y="552.6328"/><text fill="#000000" font-family="sans-serif" font-size="11" lengthAdjust="spacing" textLength="156" x="156.5" y="558.8433">updateTextAndColor(): void</text><ellipse cx="147.5" cy="568.4375" fill="#84BE84" rx="3" ry="3" style="stroke:#038048;stroke-width:1.0;"/><text fill="#000000" font-family="sans-serif" font-size="11" lengthAdjust="spacing" textLength="195" x="156.5" y="571.6479">storeResult(answer: number): void</text><ellipse cx="147.5" cy="581.2422" fill="#84BE84" rx="3" ry="3" style="stroke:#038048;stroke-width:1.0;"/><text fill="#000000" font-family="sans-serif" font-size="11" lengthAdjust="spacing" textLength="302" x="156.5" y="584.4526">getRightWrongSum(results: Array&lt;"AufgabeStore"&gt;):</text><ellipse cx="147.5" cy="594.0469" fill="#84BE84" rx="3" ry="3" style="stroke:#038048;stroke-width:1.0;"/><text fill="#000000" font-family="sans-serif" font-size="11" lengthAdjust="spacing" textLength="75" x="156.5" y="597.2573">getStatistic():</text><ellipse cx="147.5" cy="606.8516" fill="#84BE84" rx="3" ry="3" style="stroke:#038048;stroke-width:1.0;"/><text fill="#000000" font-family="sans-serif" font-size="11" lengthAdjust="spacing" textLength="403" x="156.5" y="610.062">getOrderedResults(): Array&lt;Array&lt;Array&lt;Array&lt;"AufgabeStore"&gt;&gt;&gt;&gt;</text><ellipse cx="147.5" cy="619.6563" fill="#84BE84" rx="3" ry="3" style="stroke:#038048;stroke-width:1.0;"/><text fill="#000000" font-family="sans-serif" font-size="11" lengthAdjust="spacing" textLength="101" x="156.5" y="622.8667">getDayProgress():</text><ellipse cx="147.5" cy="632.4609" fill="#84BE84" rx="3" ry="3" style="stroke:#038048;stroke-width:1.0;"/><text fill="#000000" font-family="sans-serif" font-size="11" lengthAdjust="spacing" textLength="199" x="156.5" y="635.6714">incDayLimit(incLimit: number): void</text><!--MD5=[a7f687b7e4a9c26b5ee541c5b5cf04a3]
class AufgabeStore--><rect codeLine="40" fill="#FEFECE" filter="url(#f1njw0xzkkl3j4)" height="48" id="AufgabeStore" style="stroke:#A80036;stroke-width:1.5;" width="114" x="294" y="753"/><ellipse cx="309" cy="769" fill="#B4A7E5" rx="11" ry="11" style="stroke:#A80036;stroke-width:1.0;"/><path d="M309.9531,765.7813 L311.6719,765.7813 C312.0625,765.7813 312.25,765.75 312.375,765.6719 C312.6406,765.5156 312.7813,765.2344 312.7813,764.9375 C312.7813,764.6719 312.6719,764.4063 312.4375,764.2344 C312.2656,764.125 312.125,764.0938 311.6719,764.0938 L306.5313,764.0938 C306.0938,764.0938 305.9688,764.1094 305.8125,764.2031 C305.5625,764.3594 305.4063,764.6563 305.4063,764.9375 C305.4063,765.2188 305.5469,765.4688 305.7656,765.6406 C305.9219,765.75 306.1094,765.7813 306.5313,765.7813 L308.25,765.7813 L308.25,772.2969 L306.5313,772.2969 C306.0938,772.2969 305.9688,772.3125 305.8125,772.4219 C305.5625,772.5781 305.4063,772.8594 305.4063,773.1563 C305.4063,773.4063 305.5469,773.6719 305.7656,773.8281 C305.9219,773.9531 306.125,774 306.5313,774 L311.6719,774 C312.4219,774 312.7813,773.7188 312.7813,773.1563 C312.7813,772.875 312.6719,772.625 312.4375,772.4531 C312.2656,772.3281 312.125,772.2969 311.6719,772.2969 L309.9531,772.2969 L309.9531,765.7813 Z " fill="#000000"/><text fill="#000000" font-family="sans-serif" font-size="12" font-style="italic" lengthAdjust="spacing" textLength="82" x="323" y="773.1543">AufgabeStore</text><line style="stroke:#A80036;stroke-width:1.5;" x1="295" x2="407" y1="785" y2="785"/><line style="stroke:#A80036;stroke-width:1.5;" x1="295" x2="407" y1="793" y2="793"/><!--MD5=[1924461f3c379b1c8c7badff8e27f4fd]
class RechenAufgabe--><rect codeLine="44" fill="#FEFECE" filter="url(#f1njw0xzkkl3j4)" height="99.2188" id="RechenAufgabe" style="stroke:#A80036;stroke-width:1.5;" width="233" x="841.5" y="937.5"/><ellipse cx="906.25" cy="953.5" fill="#A9DCDF" rx="11" ry="11" style="stroke:#A80036;stroke-width:1.0;"/><path d="M908.3281,955.3125 L908.7188,956.2969 L908.3281,956.2969 C907.875,956.2969 907.7656,956.3125 907.6094,956.4219 C907.3594,956.5781 907.2031,956.8594 907.2031,957.1563 C907.2031,957.4219 907.3438,957.6719 907.5625,957.8281 C907.7031,957.9531 907.9063,958 908.3281,958 L910.6875,958 C911.0469,958 911.2656,957.9688 911.4063,957.875 C911.6563,957.7344 911.8125,957.4375 911.8125,957.1563 C911.8125,956.875 911.6719,956.625 911.4531,956.4688 C911.2813,956.3281 911.125,956.2969 910.6563,956.2969 L907.2656,948.0938 L903.5938,948.0938 C903.1406,948.0938 903.0156,948.1094 902.8594,948.2031 C902.6094,948.375 902.4531,948.6563 902.4531,948.9375 C902.4531,949.2188 902.5938,949.4688 902.8125,949.6406 C902.9844,949.75 903.1563,949.7813 903.5938,949.7813 L904.6719,949.7813 L902.0313,956.2969 C901.6094,956.2969 901.4531,956.3125 901.2969,956.4219 C901.0469,956.5781 900.8906,956.8594 900.8906,957.1563 C900.8906,957.7188 901.2656,958 902.0156,958 L904.2813,958 C904.6406,958 904.8594,957.9688 904.9844,957.875 C905.25,957.7344 905.3906,957.4375 905.3906,957.1563 C905.3906,956.875 905.2656,956.625 905.0469,956.4531 C904.875,956.3281 904.7344,956.2969 904.2813,956.2969 L903.8906,956.2969 L904.2813,955.3125 L908.3281,955.3125 Z M907.625,953.6094 L904.9531,953.6094 L906.2969,950.3438 L907.625,953.6094 Z " fill="#000000"/><text fill="#000000" font-family="sans-serif" font-size="12" font-style="italic" lengthAdjust="spacing" textLength="95" x="926.75" y="957.6543">RechenAufgabe</text><line style="stroke:#A80036;stroke-width:1.5;" x1="842.5" x2="1073.5" y1="969.5" y2="969.5"/><ellipse cx="852.5" cy="980.5" rx="3" ry="3" style="stroke:#038048;stroke-width:1.0;fill:none;"/><text fill="#000000" font-family="sans-serif" font-size="11" lengthAdjust="spacing" textLength="61" x="861.5" y="983.7104">sign: string</text><ellipse cx="852.5" cy="993.3047" rx="3" ry="3" style="stroke:#038048;stroke-width:1.0;fill:none;"/><text fill="#000000" font-family="sans-serif" font-size="11" lengthAdjust="spacing" textLength="137" x="861.5" y="996.5151">values: Array&lt;number&gt;</text><ellipse cx="852.5" cy="1006.1094" rx="3" ry="3" style="stroke:#038048;stroke-width:1.0;fill:none;"/><text fill="#000000" font-family="sans-serif" font-size="11" lengthAdjust="spacing" textLength="90" x="861.5" y="1009.3198">result: number |</text><line style="stroke:#A80036;stroke-width:1.5;" x1="842.5" x2="1073.5" y1="1015.9141" y2="1015.9141"/><ellipse cx="852.5" cy="1026.9141" fill="#84BE84" rx="3" ry="3" style="stroke:#038048;stroke-width:1.0;"/><text fill="#000000" font-family="sans-serif" font-size="11" lengthAdjust="spacing" textLength="207" x="861.5" y="1030.1245">constructor(values: Array&lt;number&gt;)</text><!--MD5=[9ffdeb1e2c59e030abce26f2c09e4d61]
class RechenAufgabeAddition--><rect codeLine="51" fill="#FEFECE" filter="url(#f1njw0xzkkl3j4)" height="73.6094" id="RechenAufgabeAddition" style="stroke:#A80036;stroke-width:1.5;" width="175" x="1090.5" y="740"/><ellipse cx="1105.5" cy="756" fill="#ADD1B2" rx="11" ry="11" style="stroke:#A80036;stroke-width:1.0;"/><path d="M1107.8438,751.6719 C1106.9063,751.2344 1106.3125,751.0938 1105.4375,751.0938 C1102.8125,751.0938 1100.8125,753.1719 1100.8125,755.8906 L1100.8125,757.0156 C1100.8125,759.5938 1102.9219,761.4844 1105.8125,761.4844 C1107.0313,761.4844 1108.1875,761.1875 1108.9375,760.6406 C1109.5156,760.2344 1109.8438,759.7813 1109.8438,759.3906 C1109.8438,758.9375 1109.4531,758.5469 1108.9844,758.5469 C1108.7656,758.5469 1108.5625,758.625 1108.375,758.8125 C1107.9219,759.2969 1107.9219,759.2969 1107.7344,759.3906 C1107.3125,759.6563 1106.625,759.7813 1105.8594,759.7813 C1103.8125,759.7813 1102.5156,758.6875 1102.5156,756.9844 L1102.5156,755.8906 C1102.5156,754.1094 1103.7656,752.7969 1105.5,752.7969 C1106.0781,752.7969 1106.6875,752.9531 1107.1563,753.2031 C1107.6406,753.4844 1107.8125,753.7031 1107.9063,754.1094 C1107.9688,754.5156 1108,754.6406 1108.1406,754.7656 C1108.2813,754.9063 1108.5156,755.0156 1108.7344,755.0156 C1109,755.0156 1109.2656,754.875 1109.4375,754.6563 C1109.5469,754.5 1109.5781,754.3125 1109.5781,753.8906 L1109.5781,752.4688 C1109.5781,752.0313 1109.5625,751.9063 1109.4688,751.75 C1109.3125,751.4844 1109.0313,751.3438 1108.7344,751.3438 C1108.4375,751.3438 1108.2344,751.4375 1108.0156,751.75 L1107.8438,751.6719 Z " fill="#000000"/><text fill="#000000" font-family="sans-serif" font-size="12" lengthAdjust="spacing" textLength="143" x="1119.5" y="760.1543">RechenAufgabeAddition</text><line style="stroke:#A80036;stroke-width:1.5;" x1="1091.5" x2="1264.5" y1="772" y2="772"/><ellipse cx="1101.5" cy="783" rx="3" ry="3" style="stroke:#038048;stroke-width:1.0;fill:none;"/><text fill="#000000" font-family="sans-serif" font-size="11" lengthAdjust="spacing" textLength="23" x="1110.5" y="786.2104">sign</text><line style="stroke:#A80036;stroke-width:1.5;" x1="1091.5" x2="1264.5" y1="792.8047" y2="792.8047"/><ellipse cx="1101.5" cy="803.8047" fill="#84BE84" rx="3" ry="3" style="stroke:#038048;stroke-width:1.0;"/><text fill="#000000" font-family="sans-serif" font-size="11" lengthAdjust="spacing" textLength="127" x="1110.5" y="807.0151">getErgebnis(): number</text><!--MD5=[e09d459e559cea9e1ca9e10756dc3fbf]
class RechenAufgabeSubtraktion--><rect codeLine="55" fill="#FEFECE" filter="url(#f1njw0xzkkl3j4)" height="73.6094" id="RechenAufgabeSubtraktion" style="stroke:#A80036;stroke-width:1.5;" width="194" x="861" y="740"/><ellipse cx="876" cy="756" fill="#ADD1B2" rx="11" ry="11" style="stroke:#A80036;stroke-width:1.0;"/><path d="M878.3438,751.6719 C877.4063,751.2344 876.8125,751.0938 875.9375,751.0938 C873.3125,751.0938 871.3125,753.1719 871.3125,755.8906 L871.3125,757.0156 C871.3125,759.5938 873.4219,761.4844 876.3125,761.4844 C877.5313,761.4844 878.6875,761.1875 879.4375,760.6406 C880.0156,760.2344 880.3438,759.7813 880.3438,759.3906 C880.3438,758.9375 879.9531,758.5469 879.4844,758.5469 C879.2656,758.5469 879.0625,758.625 878.875,758.8125 C878.4219,759.2969 878.4219,759.2969 878.2344,759.3906 C877.8125,759.6563 877.125,759.7813 876.3594,759.7813 C874.3125,759.7813 873.0156,758.6875 873.0156,756.9844 L873.0156,755.8906 C873.0156,754.1094 874.2656,752.7969 876,752.7969 C876.5781,752.7969 877.1875,752.9531 877.6563,753.2031 C878.1406,753.4844 878.3125,753.7031 878.4063,754.1094 C878.4688,754.5156 878.5,754.6406 878.6406,754.7656 C878.7813,754.9063 879.0156,755.0156 879.2344,755.0156 C879.5,755.0156 879.7656,754.875 879.9375,754.6563 C880.0469,754.5 880.0781,754.3125 880.0781,753.8906 L880.0781,752.4688 C880.0781,752.0313 880.0625,751.9063 879.9688,751.75 C879.8125,751.4844 879.5313,751.3438 879.2344,751.3438 C878.9375,751.3438 878.7344,751.4375 878.5156,751.75 L878.3438,751.6719 Z " fill="#000000"/><text fill="#000000" font-family="sans-serif" font-size="12" lengthAdjust="spacing" textLength="162" x="890" y="760.1543">RechenAufgabeSubtraktion</text><line style="stroke:#A80036;stroke-width:1.5;" x1="862" x2="1054" y1="772" y2="772"/><ellipse cx="872" cy="783" rx="3" ry="3" style="stroke:#038048;stroke-width:1.0;fill:none;"/><text fill="#000000" font-family="sans-serif" font-size="11" lengthAdjust="spacing" textLength="23" x="881" y="786.2104">sign</text><line style="stroke:#A80036;stroke-width:1.5;" x1="862" x2="1054" y1="792.8047" y2="792.8047"/><ellipse cx="872" cy="803.8047" fill="#84BE84" rx="3" ry="3" style="stroke:#038048;stroke-width:1.0;"/><text fill="#000000" font-family="sans-serif" font-size="11" lengthAdjust="spacing" textLength="127" x="881" y="807.0151">getErgebnis(): number</text><!--MD5=[24f3b3cb2f1c3a2f2784e3ac52f0a9d8]
class RechenAufgabeMultiplikation--><rect codeLine="59" fill="#FEFECE" filter="url(#f1njw0xzkkl3j4)" height="73.6094" id="RechenAufgabeMultiplikation" style="stroke:#A80036;stroke-width:1.5;" width="203" x="622.5" y="740"/><ellipse cx="637.5" cy="756" fill="#ADD1B2" rx="11" ry="11" style="stroke:#A80036;stroke-width:1.0;"/><path d="M639.8438,751.6719 C638.9063,751.2344 638.3125,751.0938 637.4375,751.0938 C634.8125,751.0938 632.8125,753.1719 632.8125,755.8906 L632.8125,757.0156 C632.8125,759.5938 634.9219,761.4844 637.8125,761.4844 C639.0313,761.4844 640.1875,761.1875 640.9375,760.6406 C641.5156,760.2344 641.8438,759.7813 641.8438,759.3906 C641.8438,758.9375 641.4531,758.5469 640.9844,758.5469 C640.7656,758.5469 640.5625,758.625 640.375,758.8125 C639.9219,759.2969 639.9219,759.2969 639.7344,759.3906 C639.3125,759.6563 638.625,759.7813 637.8594,759.7813 C635.8125,759.7813 634.5156,758.6875 634.5156,756.9844 L634.5156,755.8906 C634.5156,754.1094 635.7656,752.7969 637.5,752.7969 C638.0781,752.7969 638.6875,752.9531 639.1563,753.2031 C639.6406,753.4844 639.8125,753.7031 639.9063,754.1094 C639.9688,754.5156 640,754.6406 640.1406,754.7656 C640.2813,754.9063 640.5156,755.0156 640.7344,755.0156 C641,755.0156 641.2656,754.875 641.4375,754.6563 C641.5469,754.5 641.5781,754.3125 641.5781,753.8906 L641.5781,752.4688 C641.5781,752.0313 641.5625,751.9063 641.4688,751.75 C641.3125,751.4844 641.0313,751.3438 640.7344,751.3438 C640.4375,751.3438 640.2344,751.4375 640.0156,751.75 L639.8438,751.6719 Z " fill="#000000"/><text fill="#000000" font-family="sans-serif" font-size="12" lengthAdjust="spacing" textLength="171" x="651.5" y="760.1543">RechenAufgabeMultiplikation</text><line style="stroke:#A80036;stroke-width:1.5;" x1="623.5" x2="824.5" y1="772" y2="772"/><ellipse cx="633.5" cy="783" rx="3" ry="3" style="stroke:#038048;stroke-width:1.0;fill:none;"/><text fill="#000000" font-family="sans-serif" font-size="11" lengthAdjust="spacing" textLength="23" x="642.5" y="786.2104">sign</text><line style="stroke:#A80036;stroke-width:1.5;" x1="623.5" x2="824.5" y1="792.8047" y2="792.8047"/><ellipse cx="633.5" cy="803.8047" fill="#84BE84" rx="3" ry="3" style="stroke:#038048;stroke-width:1.0;"/><text fill="#000000" font-family="sans-serif" font-size="11" lengthAdjust="spacing" textLength="127" x="642.5" y="807.0151">getErgebnis(): number</text><!--MD5=[c237b3537a4c387b05b995f71fa1fa1d]
class AufgabenService--><rect codeLine="63" fill="#FEFECE" filter="url(#f1njw0xzkkl3j4)" height="150.4375" id="AufgabenService" style="stroke:#A80036;stroke-width:1.5;" width="416" x="1301" y="702"/><ellipse cx="1453.25" cy="718" fill="#ADD1B2" rx="11" ry="11" style="stroke:#A80036;stroke-width:1.0;"/><path d="M1455.5938,713.6719 C1454.6563,713.2344 1454.0625,713.0938 1453.1875,713.0938 C1450.5625,713.0938 1448.5625,715.1719 1448.5625,717.8906 L1448.5625,719.0156 C1448.5625,721.5938 1450.6719,723.4844 1453.5625,723.4844 C1454.7813,723.4844 1455.9375,723.1875 1456.6875,722.6406 C1457.2656,722.2344 1457.5938,721.7813 1457.5938,721.3906 C1457.5938,720.9375 1457.2031,720.5469 1456.7344,720.5469 C1456.5156,720.5469 1456.3125,720.625 1456.125,720.8125 C1455.6719,721.2969 1455.6719,721.2969 1455.4844,721.3906 C1455.0625,721.6563 1454.375,721.7813 1453.6094,721.7813 C1451.5625,721.7813 1450.2656,720.6875 1450.2656,718.9844 L1450.2656,717.8906 C1450.2656,716.1094 1451.5156,714.7969 1453.25,714.7969 C1453.8281,714.7969 1454.4375,714.9531 1454.9063,715.2031 C1455.3906,715.4844 1455.5625,715.7031 1455.6563,716.1094 C1455.7188,716.5156 1455.75,716.6406 1455.8906,716.7656 C1456.0313,716.9063 1456.2656,717.0156 1456.4844,717.0156 C1456.75,717.0156 1457.0156,716.875 1457.1875,716.6563 C1457.2969,716.5 1457.3281,716.3125 1457.3281,715.8906 L1457.3281,714.4688 C1457.3281,714.0313 1457.3125,713.9063 1457.2188,713.75 C1457.0625,713.4844 1456.7813,713.3438 1456.4844,713.3438 C1456.1875,713.3438 1455.9844,713.4375 1455.7656,713.75 L1455.5938,713.6719 Z " fill="#000000"/><text fill="#000000" font-family="sans-serif" font-size="12" lengthAdjust="spacing" textLength="103" x="1473.75" y="722.1543">AufgabenService</text><line style="stroke:#A80036;stroke-width:1.5;" x1="1302" x2="1716" y1="734" y2="734"/><rect fill="none" height="6" style="stroke:#C82930;stroke-width:1.0;" width="6" x="1309" y="742"/><text fill="#000000" font-family="sans-serif" font-size="11" lengthAdjust="spacing" textLength="193" x="1321" y="748.2104">storageService: "StorageService"</text><ellipse cx="1312" cy="757.8047" rx="3" ry="3" style="stroke:#038048;stroke-width:1.0;fill:none;"/><text fill="#000000" font-family="sans-serif" font-size="11" lengthAdjust="spacing" textLength="155" x="1321" y="761.0151">aufgabe: "RechenAufgabe"</text><line style="stroke:#A80036;stroke-width:1.5;" x1="1302" x2="1716" y1="767.6094" y2="767.6094"/><text fill="#000000" font-family="sans-serif" font-size="11" lengthAdjust="spacing" textLength="337" x="1321" y="781.8198">[MISSING_METHOD_DEFINITION_ACCESSIBILTY]constructor()</text><rect fill="#F24D5C" height="6" style="stroke:#C82930;stroke-width:1.0;" width="6" x="1309" y="788.4141"/><text fill="#000000" font-family="sans-serif" font-size="11" lengthAdjust="spacing" textLength="390" x="1321" y="794.6245">getRandomInt(max: number): [MISSING_RETURN_TYPE_ANNOTATION]</text><rect fill="#F24D5C" height="6" style="stroke:#C82930;stroke-width:1.0;" width="6" x="1309" y="801.2188"/><text fill="#000000" font-family="sans-serif" font-size="11" lengthAdjust="spacing" textLength="57" x="1321" y="807.4292">getProfil():</text><rect fill="#F24D5C" height="6" style="stroke:#C82930;stroke-width:1.0;" width="6" x="1309" y="814.0234"/><text fill="#000000" font-family="sans-serif" font-size="11" lengthAdjust="spacing" textLength="290" x="1321" y="820.2339">patchAufgabe(rechenAufgabe: ): "RechenAufgabe"</text><rect fill="#F24D5C" height="6" style="stroke:#C82930;stroke-width:1.0;" width="6" x="1309" y="826.8281"/><text fill="#000000" font-family="sans-serif" font-size="11" lengthAdjust="spacing" textLength="188" x="1321" y="833.0386">newAufgabe(): "RechenAufgabe"</text><ellipse cx="1312" cy="842.6328" fill="#84BE84" rx="3" ry="3" style="stroke:#038048;stroke-width:1.0;"/><text fill="#000000" font-family="sans-serif" font-size="11" lengthAdjust="spacing" textLength="201" x="1321" y="845.8433">createAufgabe(): "RechenAufgabe"</text><!--MD5=[cf534811116a7a34d2cb5642cd08c0f1]
class StorageService--><rect codeLine="76" fill="#FEFECE" filter="url(#f1njw0xzkkl3j4)" height="150.4375" id="StorageService" style="stroke:#A80036;stroke-width:1.5;" width="412" x="1773" y="912"/><ellipse cx="1927.75" cy="928" fill="#ADD1B2" rx="11" ry="11" style="stroke:#A80036;stroke-width:1.0;"/><path d="M1930.0938,923.6719 C1929.1563,923.2344 1928.5625,923.0938 1927.6875,923.0938 C1925.0625,923.0938 1923.0625,925.1719 1923.0625,927.8906 L1923.0625,929.0156 C1923.0625,931.5938 1925.1719,933.4844 1928.0625,933.4844 C1929.2813,933.4844 1930.4375,933.1875 1931.1875,932.6406 C1931.7656,932.2344 1932.0938,931.7813 1932.0938,931.3906 C1932.0938,930.9375 1931.7031,930.5469 1931.2344,930.5469 C1931.0156,930.5469 1930.8125,930.625 1930.625,930.8125 C1930.1719,931.2969 1930.1719,931.2969 1929.9844,931.3906 C1929.5625,931.6563 1928.875,931.7813 1928.1094,931.7813 C1926.0625,931.7813 1924.7656,930.6875 1924.7656,928.9844 L1924.7656,927.8906 C1924.7656,926.1094 1926.0156,924.7969 1927.75,924.7969 C1928.3281,924.7969 1928.9375,924.9531 1929.4063,925.2031 C1929.8906,925.4844 1930.0625,925.7031 1930.1563,926.1094 C1930.2188,926.5156 1930.25,926.6406 1930.3906,926.7656 C1930.5313,926.9063 1930.7656,927.0156 1930.9844,927.0156 C1931.25,927.0156 1931.5156,926.875 1931.6875,926.6563 C1931.7969,926.5 1931.8281,926.3125 1931.8281,925.8906 L1931.8281,924.4688 C1931.8281,924.0313 1931.8125,923.9063 1931.7188,923.75 C1931.5625,923.4844 1931.2813,923.3438 1930.9844,923.3438 C1930.6875,923.3438 1930.4844,923.4375 1930.2656,923.75 L1930.0938,923.6719 Z " fill="#000000"/><text fill="#000000" font-family="sans-serif" font-size="12" lengthAdjust="spacing" textLength="94" x="1948.25" y="932.1543">StorageService</text><line style="stroke:#A80036;stroke-width:1.5;" x1="1774" x2="2184" y1="944" y2="944"/><rect fill="none" height="6" style="stroke:#C82930;stroke-width:1.0;" width="6" x="1781" y="952"/><text fill="#000000" font-family="sans-serif" font-size="11" lengthAdjust="spacing" textLength="217" x="1793" y="958.2104">memoryStorage: "INameToValueMap"</text><rect fill="none" height="6" style="stroke:#C82930;stroke-width:1.0;" width="6" x="1781" y="964.8047"/><text fill="#000000" font-family="sans-serif" font-size="11" lengthAdjust="spacing" textLength="105" x="1793" y="971.0151">namespace: string</text><line style="stroke:#A80036;stroke-width:1.5;" x1="1774" x2="2184" y1="977.6094" y2="977.6094"/><ellipse cx="1784" cy="988.6094" fill="#84BE84" rx="3" ry="3" style="stroke:#038048;stroke-width:1.0;"/><text fill="#000000" font-family="sans-serif" font-size="11" lengthAdjust="spacing" textLength="386" x="1793" y="991.8198">constructor(namespace: [MISSING_PARAMETER_TYPE_ANNOTATION])</text><ellipse cx="1784" cy="1001.4141" fill="#84BE84" rx="3" ry="3" style="stroke:#038048;stroke-width:1.0;"/><text fill="#000000" font-family="sans-serif" font-size="11" lengthAdjust="spacing" textLength="238" x="1793" y="1004.6245">setItem(key: string, value: unknown): void</text><ellipse cx="1784" cy="1014.2188" fill="#84BE84" rx="3" ry="3" style="stroke:#038048;stroke-width:1.0;"/><text fill="#000000" font-family="sans-serif" font-size="11" lengthAdjust="spacing" textLength="136" x="1793" y="1017.4292">getItem(key: string): "T"</text><ellipse cx="1784" cy="1027.0234" fill="#84BE84" rx="3" ry="3" style="stroke:#038048;stroke-width:1.0;"/><text fill="#000000" font-family="sans-serif" font-size="11" lengthAdjust="spacing" textLength="169" x="1793" y="1030.2339">removeItem(key: string): void</text><rect fill="#F24D5C" height="6" style="stroke:#C82930;stroke-width:1.0;" width="6" x="1781" y="1036.8281"/><text fill="#000000" font-family="sans-serif" font-size="11" lengthAdjust="spacing" textLength="80" x="1793" y="1043.0386">restore(): void</text><rect fill="#F24D5C" height="6" style="stroke:#C82930;stroke-width:1.0;" width="6" x="1781" y="1049.6328"/><text fill="#000000" font-family="sans-serif" font-size="11" lengthAdjust="spacing" textLength="68" x="1793" y="1055.8433">store(): void</text><!--MD5=[d8d6fdda687aab1e946e2cf535f0784d]
reverse link ReactComponent to RechnenComponent--><path codeLine="87" d="M130.303,104.866 C144.177,122.093 161.106,143.111 177.751,163.778 " fill="none" id="ReactComponent-backto-RechnenComponent" style="stroke:#A80036;stroke-width:1.0;"/><polygon fill="none" points="124.663,109.023,117.57,89.06,135.567,100.242,124.663,109.023" style="stroke:#A80036;stroke-width:1.0;"/><!--MD5=[5e264b1edbe6ffa8f1655e508e1d57d0]
reverse link GenericComponent to RechnenComponent--><path codeLine="88" d="M270.892,94.148 C268.158,112.88 264.406,138.591 260.73,163.778 " fill="none" id="GenericComponent-backto-RechnenComponent" style="stroke:#A80036;stroke-width:1.0;stroke-dasharray:7.0,7.0;"/><polygon fill="#A80036" points="271.635,89.06,266.3738,97.3858,270.9109,94.0073,274.2895,98.5444,271.635,89.06" style="stroke:#A80036;stroke-width:1.0;"/><!--MD5=[9584672eee8ba47f9f351281158640d3]
link RechnenComponent to RechnenController--><path codeLine="89" d="M280.731,340.231 C289.626,363.936 299.386,389.947 308.728,414.842 " fill="none" id="RechnenComponent-RechnenController" style="stroke:#A80036;stroke-width:1.0;stroke-dasharray:7.0,7.0;"/><!--MD5=[6a5e68e7cbb22a364b370909fc45c308]
link RechnenController to AbstractController--><path codeLine="90" d="M401.647,414.923 C407.89,398.096 413.608,380.766 418,364 C441.204,275.429 449.984,168.131 453.21,109.487 " fill="none" id="RechnenController-to-AbstractController" style="stroke:#A80036;stroke-width:1.0;"/><polygon fill="none" points="446.234,108.829,454.208,89.2,460.217,109.517,446.234,108.829" style="stroke:#A80036;stroke-width:1.0;"/><!--MD5=[c090962ab44499b2b17aa7dee96d5d67]
link RechnenController to AufgabenService--><path codeLine="91" d="M565.599,538.674 C757.493,551.691 1044.42,583.133 1283,659 C1317.1,669.845 1352.25,685.541 1384.37,701.931 " fill="none" id="RechnenController-AufgabenService" style="stroke:#A80036;stroke-width:1.0;stroke-dasharray:7.0,7.0;"/><!--MD5=[7d06aedd82ab178a458e594fb1acea53]
link RechnenController to StorageService--><path codeLine="92" d="M565.7,528.761 C902.914,531.038 1538.35,550.217 1733,659 C1834.7,715.839 1907.06,834.054 1945.93,911.68 " fill="none" id="RechnenController-StorageService" style="stroke:#A80036;stroke-width:1.0;stroke-dasharray:7.0,7.0;"/><!--MD5=[b49608be4acde4c37d61e8a2e07e3eff]
link RechnenController to RechenAufgabe--><path codeLine="93" d="M417.388,642.074 C462.769,710.733 528.445,795.803 605,852 C675.545,903.785 768.51,938.001 841.328,958.889 " fill="none" id="RechnenController-RechenAufgabe" style="stroke:#A80036;stroke-width:1.0;stroke-dasharray:7.0,7.0;"/><!--MD5=[29fd2c3b42cffcb0fa2562eb2c907dec]
link RechnenController to AufgabeStore--><path codeLine="94" d="M351,642.29 C351,683.871 351,727.051 351,752.716 " fill="none" id="RechnenController-AufgabeStore" style="stroke:#A80036;stroke-width:1.0;stroke-dasharray:7.0,7.0;"/><!--MD5=[63df4453cd81475bbcbb8de278065c4d]
link RechenAufgabeAddition to RechenAufgabe--><path codeLine="95" d="M1139.68,814.231 C1107.84,844.338 1061.8,887.865 1024.03,923.569 " fill="none" id="RechenAufgabeAddition-to-RechenAufgabe" style="stroke:#A80036;stroke-width:1.0;"/><polygon fill="none" points="1028.83,928.67,1009.48,937.324,1019.21,918.497,1028.83,928.67" style="stroke:#A80036;stroke-width:1.0;"/><!--MD5=[8388d469ea862ed980a71fb3bd2f2df3]
link RechenAufgabeSubtraktion to RechenAufgabe--><path codeLine="96" d="M958,814.231 C958,842.473 958,882.524 958,916.848 " fill="none" id="RechenAufgabeSubtraktion-to-RechenAufgabe" style="stroke:#A80036;stroke-width:1.0;"/><polygon fill="none" points="965,917.324,958,937.324,951,917.323,965,917.324" style="stroke:#A80036;stroke-width:1.0;"/><!--MD5=[a987e954b57c015bfd35fd22d9d321a1]
link RechenAufgabeMultiplikation to RechenAufgabe--><path codeLine="97" d="M764.76,814.231 C798.705,844.404 847.815,888.058 888.031,923.805 " fill="none" id="RechenAufgabeMultiplikation-to-RechenAufgabe" style="stroke:#A80036;stroke-width:1.0;"/><polygon fill="none" points="892.941,918.804,903.239,937.324,883.64,929.268,892.941,918.804" style="stroke:#A80036;stroke-width:1.0;"/><!--MD5=[fa39cdda09d1f02e82f3cdc7edcb3054]
link AufgabenService to StorageService--><path codeLine="98" d="M1693.63,852.015 C1706.99,857.674 1720.23,863.374 1733,869 C1763.51,882.44 1795.88,897.351 1826.76,911.903 " fill="none" id="AufgabenService-StorageService" style="stroke:#A80036;stroke-width:1.0;stroke-dasharray:7.0,7.0;"/><!--MD5=[e4f2e84f4bb78b837e40621a8ed2a56e]
link AufgabenService to RechenAufgabe--><path codeLine="99" d="M1312.8,852.065 C1233.18,882.12 1143.91,915.821 1074.82,941.899 " fill="none" id="AufgabenService-RechenAufgabe" style="stroke:#A80036;stroke-width:1.0;stroke-dasharray:7.0,7.0;"/><!--MD5=[cd100bef16617524aa375a60af326300]
@startuml
package "ArchLib" {
    interface "GenericComponent" {}
    class "AbstractController" {}
    class "ReactComponent" {}
}

package "rechnen.component.tsx" {
class "RechnenComponent" {
+ctrl: "RechnenController": RechnenController
-toggle
-formRef
-isModalVisible
-isSubmitted
-isEingabeDisabled
+componentDidMount(): void
-onKeyUp(event: unknown): void
-onReset(): [MISSING_RETURN_TYPE_ANNOTATION]
+render(): JSX.Element
}
}

package "rechnen.controller.ts" {
class "RechnenController" {
-aufgabenService: "AufgabenService"
-storageService: "StorageService"
+aufgabe: "RechenAufgabe"
+ergebnisText
+ergebnisColor
+constructor()
+createAufgabe(): void
-updateTextAndColor(): void
+storeResult(answer: number): void
+getRightWrongSum(results: Array<"AufgabeStore">): 
+getStatistic(): 
+getOrderedResults(): Array<Array<Array<Array<"AufgabeStore">>>>
+getDayProgress(): 
+incDayLimit(incLimit: number): void
}

interface AufgabeStore {}
}

package "aufgaben.service.ts" {
abstract class "RechenAufgabe" {
+sign: string
+values: Array<number>
+result: number | 
+constructor(values: Array<number>)

}
class "RechenAufgabeAddition" {
+sign
+getErgebnis(): number
}
class "RechenAufgabeSubtraktion" {
+sign
+getErgebnis(): number
}
class "RechenAufgabeMultiplikation" {
+sign
+getErgebnis(): number
}
class "AufgabenService" {
-storageService: "StorageService"
+aufgabe: "RechenAufgabe"
[MISSING_METHOD_DEFINITION_ACCESSIBILTY]constructor()
-getRandomInt(max: number): [MISSING_RETURN_TYPE_ANNOTATION]
-getProfil(): 
-patchAufgabe(rechenAufgabe: ): "RechenAufgabe"
-newAufgabe(): "RechenAufgabe"
+createAufgabe(): "RechenAufgabe"
}
}

package "storage.service.ts" {
class "StorageService" {
-memoryStorage: "INameToValueMap"
-namespace: string
+constructor(namespace: [MISSING_PARAMETER_TYPE_ANNOTATION])
+setItem(key: string, value: unknown): void
+getItem(key: string): "T"
+removeItem(key: string): void
-restore(): void
-store(): void
}
}
RechnenComponent -u-|> ReactComponent
RechnenComponent .u.> GenericComponent
RechnenComponent .. RechnenController
RechnenController - -|> AbstractController
RechnenController .d. AufgabenService
RechnenController .d. StorageService
RechnenController .. RechenAufgabe
RechnenController .. AufgabeStore
RechenAufgabeAddition - -|> RechenAufgabe
RechenAufgabeSubtraktion - -|> RechenAufgabe
RechenAufgabeMultiplikation - -|> RechenAufgabe
AufgabenService .d. StorageService
AufgabenService .. RechenAufgabe
@enduml

PlantUML version 1.2021.4beta2(Unknown compile time)
(GPL source distribution)
Java Runtime: Java(TM) SE Runtime Environment
JVM: Java HotSpot(TM) 64-Bit Server VM
Default Encoding: UTF-8
Language: en
Country: US
--></g></svg>